<svg fill="#000000" xmlns="http://www.w3.org/2000/svg"  viewBox="0 0 24 24" width="96px" height="96px"><path d="M 12 4 C 5.398438 4 0 7.601563 0 12 C 0 16.398438 5.398438 20 12 20 C 18.601563 20 24 16.398438 24 12 C 24 7.601563 18.601563 4 12 4 Z M 12 6 C 17.5 6 22 8.601563 22 12 C 22 15.398438 17.5 18 12 18 C 6.5 18 2 15.398438 2 12 C 2 8.601563 6.5 6 12 6 Z M 10 8 C 7.5 8 4 10.101563 4 12 C 4 13.898438 6.398438 15.5 8 16 C 7 14.398438 9.601563 13.300781 10 15 C 10.800781 14.300781 11.800781 14.898438 12 16 C 12.199219 14.898438 13.199219 14.300781 14 15 C 14.398438 13.300781 17 14.398438 16 16 C 17.601563 15.5 20 13.898438 20 12 C 20 10.101563 16.5 8 14 8 C 14.800781 8.199219 15 9 15 10 C 15 10.5 14.601563 11 14 11 C 13.5 11 13 10.800781 13 10 L 13 9 L 12 10 L 11 9 L 11 10 C 11 10.800781 10.5 11 10 11 C 9.398438 11 9 10.5 9 10 C 9 9 9.199219 8.199219 10 8 Z"/></svg>