<?xml version="1.0" encoding="UTF-8" standalone="no"?>
<svg
   xmlns:dc="http://purl.org/dc/elements/1.1/"
   xmlns:cc="http://creativecommons.org/ns#"
   xmlns:rdf="http://www.w3.org/1999/02/22-rdf-syntax-ns#"
   xmlns:svg="http://www.w3.org/2000/svg"
   xmlns="http://www.w3.org/2000/svg"
   xmlns:sodipodi="http://sodipodi.sourceforge.net/DTD/sodipodi-0.dtd"
   xmlns:inkscape="http://www.inkscape.org/namespaces/inkscape"
   width="821.01849"
   height="439.49976"
   viewBox="0 0 821.01849 439.49976"
   version="1.1"
   id="svg30"
   sodipodi:docname="Desktop - 1.svg"
   style="fill:none"
   inkscape:version="0.92.5 (2060ec1f9f, 2020-04-08)">
  <metadata
     id="metadata36">
    <rdf:RDF>
      <cc:Work
         rdf:about="">
        <dc:format>image/svg+xml</dc:format>
        <dc:type
           rdf:resource="http://purl.org/dc/dcmitype/StillImage" />
      </cc:Work>
    </rdf:RDF>
  </metadata>
  <defs
     id="defs34" />
  <sodipodi:namedview
     pagecolor="#ffffff"
     bordercolor="#666666"
     borderopacity="1"
     objecttolerance="10"
     gridtolerance="10"
     guidetolerance="10"
     inkscape:pageopacity="0"
     inkscape:pageshadow="2"
     inkscape:window-width="2488"
     inkscape:window-height="1376"
     id="namedview32"
     showgrid="false"
     inkscape:zoom="1.0620431"
     inkscape:cx="320.3253"
     inkscape:cy="373.51289"
     inkscape:window-x="72"
     inkscape:window-y="27"
     inkscape:window-maximized="1"
     inkscape:current-layer="svg30" />
  <rect
     width="1419"
     height="1026"
     id="rect2"
     x="-424.48401"
     y="-399"
     style="fill:#ffffff" />
  <rect
     x="33.515999"
     y="0"
     width="608"
     height="227"
     rx="26"
     id="rect4"
     style="fill:#446b75" />
  <rect
     x="64.515999"
     y="34"
     width="212"
     height="159"
     rx="26"
     id="rect6"
     style="fill:#c4c4c4" />
  <rect
     x="312.51599"
     y="34"
     width="303"
     height="159"
     rx="26"
     id="rect8"
     style="fill:#c4c4c4" />
  <path
     d="m 131.375,124 h -3 v -22.75 h 3 z m 8.969,-21 v 4.094 h 3.156 v 2.234 h -3.156 v 10.484 c 0,0.678 0.141,1.188 0.422,1.532 0.281,0.333 0.76,0.5 1.438,0.5 0.333,0 0.791,-0.063 1.374,-0.188 V 124 c -0.76,0.208 -1.5,0.312 -2.218,0.312 -1.292,0 -2.266,-0.39 -2.922,-1.171 -0.656,-0.782 -0.984,-1.891 -0.984,-3.329 v -10.484 h -3.079 v -2.234 h 3.079 V 103 Z m 13.563,21.312 c -2.292,0 -4.157,-0.75 -5.594,-2.25 -1.438,-1.51 -2.156,-3.526 -2.156,-6.046 v -0.532 c 0,-1.677 0.317,-3.172 0.953,-4.484 0.646,-1.323 1.541,-2.354 2.687,-3.094 1.157,-0.75 2.407,-1.125 3.75,-1.125 2.198,0 3.907,0.724 5.125,2.172 1.219,1.448 1.828,3.521 1.828,6.219 v 1.203 h -11.453 c 0.042,1.667 0.526,3.016 1.453,4.047 0.938,1.021 2.125,1.531 3.563,1.531 1.021,0 1.885,-0.208 2.594,-0.625 0.708,-0.417 1.328,-0.969 1.859,-1.656 l 1.766,1.375 c -1.417,2.177 -3.542,3.265 -6.375,3.265 z m -0.36,-15.156 c -1.166,0 -2.146,0.427 -2.937,1.282 -0.792,0.843 -1.282,2.031 -1.469,3.562 h 8.469 v -0.219 c -0.084,-1.469 -0.479,-2.604 -1.188,-3.406 -0.708,-0.813 -1.666,-1.219 -2.875,-1.219 z m 13.031,-2.062 0.079,1.875 c 1.239,-1.459 2.911,-2.188 5.015,-2.188 2.365,0 3.974,0.907 4.828,2.719 0.563,-0.812 1.292,-1.469 2.188,-1.969 0.906,-0.5 1.974,-0.75 3.203,-0.75 3.708,0 5.594,1.964 5.656,5.891 V 124 h -2.89 v -11.156 c 0,-1.209 -0.276,-2.11 -0.829,-2.703 -0.552,-0.605 -1.479,-0.907 -2.781,-0.907 -1.073,0 -1.963,0.323 -2.672,0.969 -0.708,0.636 -1.119,1.495 -1.234,2.578 V 124 h -2.906 v -11.078 c 0,-2.458 -1.203,-3.688 -3.61,-3.688 -1.895,0 -3.192,0.808 -3.89,2.422 V 124 h -2.891 V 107.094 Z M 209.063,124 h -2.906 v -19.266 l -5.829,2.141 v -2.625 l 8.282,-3.109 h 0.453 z"
     id="path10"
     inkscape:connector-curvature="0"
     style="fill:#ffffff" />
  <path
     d="m 424.375,124 h -3 v -22.75 h 3 z m 8.969,-21 v 4.094 h 3.156 v 2.234 h -3.156 v 10.484 c 0,0.678 0.141,1.188 0.422,1.532 0.281,0.333 0.76,0.5 1.438,0.5 0.333,0 0.791,-0.063 1.374,-0.188 V 124 c -0.76,0.208 -1.5,0.312 -2.218,0.312 -1.292,0 -2.266,-0.39 -2.922,-1.171 -0.656,-0.782 -0.984,-1.891 -0.984,-3.329 v -10.484 h -3.079 v -2.234 h 3.079 V 103 Z m 13.563,21.312 c -2.292,0 -4.157,-0.75 -5.594,-2.25 -1.438,-1.51 -2.156,-3.526 -2.156,-6.046 v -0.532 c 0,-1.677 0.317,-3.172 0.953,-4.484 0.646,-1.323 1.541,-2.354 2.687,-3.094 1.157,-0.75 2.407,-1.125 3.75,-1.125 2.198,0 3.907,0.724 5.125,2.172 1.219,1.448 1.828,3.521 1.828,6.219 v 1.203 h -11.453 c 0.042,1.667 0.526,3.016 1.453,4.047 0.938,1.021 2.125,1.531 3.563,1.531 1.021,0 1.885,-0.208 2.594,-0.625 0.708,-0.417 1.328,-0.969 1.859,-1.656 l 1.766,1.375 c -1.417,2.177 -3.542,3.265 -6.375,3.265 z m -0.36,-15.156 c -1.166,0 -2.146,0.427 -2.937,1.282 -0.792,0.843 -1.282,2.031 -1.469,3.562 h 8.469 v -0.219 c -0.084,-1.469 -0.479,-2.604 -1.188,-3.406 -0.708,-0.813 -1.666,-1.219 -2.875,-1.219 z m 13.031,-2.062 0.079,1.875 c 1.239,-1.459 2.911,-2.188 5.015,-2.188 2.365,0 3.974,0.907 4.828,2.719 0.563,-0.812 1.292,-1.469 2.188,-1.969 0.906,-0.5 1.974,-0.75 3.203,-0.75 3.708,0 5.594,1.964 5.656,5.891 V 124 h -2.89 v -11.156 c 0,-1.209 -0.276,-2.11 -0.829,-2.703 -0.552,-0.605 -1.479,-0.907 -2.781,-0.907 -1.073,0 -1.963,0.323 -2.672,0.969 -0.708,0.636 -1.119,1.495 -1.234,2.578 V 124 h -2.906 v -11.078 c 0,-2.458 -1.203,-3.688 -3.61,-3.688 -1.895,0 -3.192,0.808 -3.89,2.422 V 124 h -2.891 V 107.094 Z M 507.469,124 h -14.906 v -2.078 l 7.875,-8.75 c 1.167,-1.323 1.969,-2.396 2.406,-3.219 0.448,-0.833 0.672,-1.693 0.672,-2.578 0,-1.187 -0.359,-2.161 -1.078,-2.922 -0.719,-0.76 -1.677,-1.141 -2.875,-1.141 -1.438,0 -2.557,0.412 -3.359,1.235 -0.792,0.812 -1.188,1.948 -1.188,3.406 h -2.891 c 0,-2.094 0.672,-3.786 2.016,-5.078 1.354,-1.292 3.161,-1.937 5.422,-1.937 2.114,0 3.786,0.557 5.015,1.671 1.23,1.105 1.844,2.579 1.844,4.422 0,2.24 -1.427,4.907 -4.281,8 l -6.094,6.61 h 11.422 z"
     id="path12"
     inkscape:connector-curvature="0"
     style="fill:#ffffff" />
  <path
     d="m 820.576,114.061 c 0.59,-0.586 0.59,-1.536 0,-2.122 l -9.55,-9.546 c -0.58,-0.585 -1.53,-0.585 -2.12,0 -0.58,0.586 -0.58,1.536 0,2.122 l 8.49,8.485 -8.49,8.485 c -0.58,0.586 -0.58,1.536 0,2.122 0.59,0.585 1.54,0.585 2.12,0 z M 33.516,114.5 h 786 v -3 h -786 z"
     id="path14"
     inkscape:connector-curvature="0"
     style="fill:#f57703" />
  <path
     d="m 325.455,439.061 c 0.586,0.585 1.536,0.585 2.122,0 l 9.546,-9.546 c 0.585,-0.586 0.585,-1.536 0,-2.122 -0.586,-0.585 -1.536,-0.585 -2.122,0 l -8.485,8.486 -8.485,-8.486 c -0.586,-0.585 -1.536,-0.585 -2.122,0 -0.585,0.586 -0.585,1.536 0,2.122 z M 325.016,1 v 437 h 3 V 1 Z"
     id="path16"
     inkscape:connector-curvature="0"
     style="fill:#f57703" />
  <path
     d="m 666.426,88.094 0.07,1.875 c 1.24,-1.459 2.92,-2.188 5.02,-2.188 2.36,0 3.97,0.907 4.83,2.719 0.56,-0.812 1.29,-1.469 2.19,-1.969 0.9,-0.5 1.97,-0.75 3.2,-0.75 3.71,0 5.59,1.964 5.66,5.891 V 105 h -2.9 V 93.844 c 0,-1.209 -0.27,-2.11 -0.82,-2.703 -0.56,-0.605 -1.48,-0.907 -2.78,-0.907 -1.08,0 -1.97,0.323 -2.68,0.969 -0.71,0.636 -1.12,1.495 -1.23,2.578 V 105 h -2.91 V 93.922 c 0,-2.458 -1.2,-3.688 -3.61,-3.688 -1.89,0 -3.19,0.808 -3.89,2.422 V 105 h -2.89 V 88.094 Z M 702.206,105 c -0.17,-0.333 -0.3,-0.927 -0.41,-1.781 -1.34,1.396 -2.95,2.093 -4.81,2.093 -1.67,0 -3.04,-0.468 -4.11,-1.406 -1.06,-0.948 -1.59,-2.146 -1.59,-3.594 0,-1.76 0.66,-3.124 2,-4.093 1.34,-0.979 3.22,-1.469 5.65,-1.469 h 2.81 v -1.328 c 0,-1.011 -0.3,-1.813 -0.9,-2.406 -0.61,-0.605 -1.5,-0.907 -2.67,-0.907 -1.04,0 -1.9,0.261 -2.6,0.782 -0.7,0.52 -1.04,1.151 -1.04,1.89 h -2.91 c 0,-0.843 0.3,-1.656 0.89,-2.437 0.6,-0.792 1.42,-1.417 2.44,-1.875 1.03,-0.459 2.16,-0.688 3.39,-0.688 1.95,0 3.47,0.49 4.58,1.469 1.1,0.969 1.67,2.307 1.71,4.016 v 7.781 c 0,1.552 0.2,2.786 0.6,3.703 V 105 Z m -4.8,-2.203 c 0.91,0 1.77,-0.235 2.58,-0.703 0.81,-0.469 1.4,-1.078 1.76,-1.828 v -3.469 h -2.26 c -3.54,0 -5.31,1.036 -5.31,3.109 0,0.906 0.3,1.615 0.9,2.125 0.61,0.511 1.38,0.766 2.33,0.766 z m 14.91,2.203 h -2.89 V 88.094 h 2.89 z m -3.13,-21.391 c 0,-0.468 0.14,-0.864 0.42,-1.187 0.3,-0.323 0.72,-0.484 1.29,-0.484 0.56,0 0.98,0.161 1.28,0.484 0.29,0.323 0.43,0.719 0.43,1.187 0,0.469 -0.14,0.86 -0.43,1.172 -0.3,0.313 -0.72,0.469 -1.28,0.469 -0.57,0 -0.99,-0.156 -1.29,-0.469 -0.28,-0.312 -0.42,-0.703 -0.42,-1.172 z m 10.5,4.485 0.1,2.125 c 1.29,-1.625 2.97,-2.438 5.06,-2.438 3.57,0 5.37,2.016 5.4,6.047 V 105 h -2.89 V 93.812 c -0.01,-1.218 -0.29,-2.119 -0.84,-2.703 -0.54,-0.583 -1.39,-0.875 -2.55,-0.875 -0.93,0 -1.76,0.25 -2.47,0.75 -0.7,0.5 -1.26,1.157 -1.65,1.969 V 105 h -2.89 V 88.094 Z m 33.3,16.906 c -0.17,-0.333 -0.3,-0.927 -0.41,-1.781 -1.34,1.396 -2.95,2.093 -4.81,2.093 -1.67,0 -3.04,-0.468 -4.11,-1.406 -1.06,-0.948 -1.59,-2.146 -1.59,-3.594 0,-1.76 0.66,-3.124 2,-4.093 1.34,-0.979 3.23,-1.469 5.65,-1.469 h 2.82 v -1.328 c 0,-1.011 -0.31,-1.813 -0.91,-2.406 -0.6,-0.605 -1.5,-0.907 -2.67,-0.907 -1.03,0 -1.9,0.261 -2.6,0.782 -0.69,0.52 -1.04,1.151 -1.04,1.89 h -2.91 c 0,-0.843 0.3,-1.656 0.89,-2.437 0.61,-0.792 1.42,-1.417 2.44,-1.875 1.03,-0.459 2.16,-0.688 3.39,-0.688 1.95,0 3.47,0.49 4.58,1.469 1.1,0.969 1.67,2.307 1.72,4.016 v 7.781 c 0,1.552 0.19,2.786 0.59,3.703 V 105 Z m -4.8,-2.203 c 0.91,0 1.77,-0.235 2.58,-0.703 0.81,-0.469 1.4,-1.078 1.77,-1.828 v -3.469 h -2.27 c -3.54,0 -5.31,1.036 -5.31,3.109 0,0.906 0.3,1.615 0.9,2.125 0.61,0.511 1.38,0.766 2.33,0.766 z m 17.44,-8.531 3.75,-6.172 h 3.37 l -5.53,8.359 5.71,8.547 h -3.35 l -3.9,-6.328 -3.91,6.328 h -3.36 l 5.7,-8.547 -5.53,-8.359 h 3.35 z M 778.966,105 h -2.89 V 88.094 h 2.89 z m -3.12,-21.391 c 0,-0.468 0.14,-0.864 0.42,-1.187 0.29,-0.323 0.72,-0.484 1.28,-0.484 0.56,0 0.99,0.161 1.28,0.484 0.29,0.323 0.44,0.719 0.44,1.187 0,0.469 -0.15,0.86 -0.44,1.172 -0.29,0.313 -0.72,0.469 -1.28,0.469 -0.56,0 -0.99,-0.156 -1.28,-0.469 -0.28,-0.312 -0.42,-0.703 -0.42,-1.172 z m 17.61,16.907 c 0,-0.782 -0.3,-1.386 -0.89,-1.813 -0.59,-0.437 -1.61,-0.812 -3.08,-1.125 -1.46,-0.312 -2.62,-0.687 -3.49,-1.125 -0.85,-0.437 -1.49,-0.958 -1.9,-1.562 -0.41,-0.605 -0.61,-1.323 -0.61,-2.157 0,-1.385 0.58,-2.557 1.75,-3.515 1.18,-0.959 2.68,-1.438 4.5,-1.438 1.92,0 3.47,0.495 4.66,1.485 1.19,0.989 1.79,2.255 1.79,3.796 h -2.9 c 0,-0.791 -0.34,-1.473 -1.02,-2.046 -0.67,-0.573 -1.51,-0.86 -2.53,-0.86 -1.05,0 -1.88,0.229 -2.47,0.688 -0.59,0.458 -0.89,1.057 -0.89,1.797 0,0.698 0.28,1.224 0.83,1.578 0.55,0.354 1.54,0.692 2.98,1.015 1.45,0.323 2.62,0.709 3.52,1.157 0.89,0.448 1.55,0.989 1.98,1.625 0.44,0.625 0.66,1.39 0.66,2.296 0,1.511 -0.61,2.724 -1.81,3.641 -1.21,0.906 -2.78,1.359 -4.71,1.359 -1.35,0 -2.55,-0.239 -3.59,-0.718 -1.04,-0.479 -1.86,-1.146 -2.45,-2 -0.59,-0.865 -0.88,-1.797 -0.88,-2.797 h 2.89 c 0.05,0.969 0.44,1.739 1.16,2.312 0.73,0.563 1.68,0.844 2.87,0.844 1.1,0 1.97,-0.219 2.63,-0.656 0.66,-0.448 1,-1.042 1,-1.781 z"
     id="path18"
     inkscape:connector-curvature="0"
     style="fill:#000000" />
  <path
     d="m 347.682,291.343 c 0.014,1.031 0.339,1.928 0.974,2.691 0.635,0.762 1.422,1.178 2.361,1.249 l 0.037,2.734 c -0.97,-0.039 -1.896,-0.36 -2.779,-0.962 -0.883,-0.603 -1.592,-1.417 -2.127,-2.441 -0.534,-1.014 -0.809,-2.093 -0.825,-3.239 -0.031,-2.302 0.71,-4.145 2.223,-5.53 1.523,-1.375 3.618,-2.08 6.285,-2.116 l 0.484,-0.007 c 1.646,-0.022 3.113,0.261 4.402,0.847 1.29,0.587 2.296,1.439 3.019,2.554 0.724,1.126 1.096,2.459 1.117,4.001 0.025,1.896 -0.521,3.476 -1.64,4.741 -1.118,1.276 -2.583,1.967 -4.394,2.075 l -0.037,-2.734 c 1.092,-0.098 1.983,-0.527 2.67,-1.286 0.699,-0.749 1.041,-1.671 1.026,-2.764 -0.02,-1.469 -0.566,-2.602 -1.64,-3.4 -1.062,-0.788 -2.594,-1.169 -4.594,-1.142 l -0.546,0.007 c -1.948,0.027 -3.443,0.448 -4.484,1.264 -1.041,0.816 -1.552,1.969 -1.532,3.458 z m 12.508,17.975 c 0.068,-0.439 0.098,-0.913 0.091,-1.424 -0.026,-1.895 -0.85,-3.171 -2.474,-3.826 l -11.999,0.161 -0.038,-2.89 16.904,-0.227 0.038,2.812 -1.952,0.073 c 1.523,0.927 2.296,2.261 2.319,4 0.008,0.563 -0.059,0.991 -0.201,1.284 z m -5.681,1.67 c 1.656,-0.022 3.15,0.28 4.482,0.908 1.331,0.639 2.364,1.531 3.098,2.678 0.735,1.157 1.112,2.48 1.132,3.969 0.031,2.302 -0.741,4.172 -2.316,5.61 -1.574,1.448 -3.684,2.19 -6.33,2.226 l -0.203,0.003 c -1.645,0.022 -3.129,-0.276 -4.45,-0.894 -1.31,-0.607 -2.338,-1.495 -3.083,-2.662 -0.744,-1.157 -1.127,-2.495 -1.147,-4.016 -0.031,-2.291 0.741,-4.161 2.315,-5.61 1.575,-1.438 3.674,-2.174 6.299,-2.21 z m -0.304,2.91 c -1.875,0.026 -3.375,0.478 -4.498,1.358 -1.124,0.89 -1.676,2.064 -1.656,3.522 0.02,1.469 0.608,2.628 1.765,3.477 1.168,0.849 2.788,1.259 4.861,1.232 1.854,-0.025 3.348,-0.488 4.482,-1.389 1.144,-0.89 1.707,-2.065 1.687,-3.523 -0.019,-1.427 -0.602,-2.57 -1.749,-3.43 -1.147,-0.859 -2.778,-1.275 -4.892,-1.247 z m -3.433,26.002 c 0.781,-0.011 1.381,-0.316 1.801,-0.915 0.429,-0.589 0.79,-1.62 1.083,-3.093 0.293,-1.462 0.652,-2.629 1.078,-3.499 0.426,-0.86 0.938,-1.502 1.537,-1.927 0.599,-0.414 1.315,-0.627 2.148,-0.638 1.385,-0.019 2.565,0.549 3.539,1.702 0.974,1.164 1.473,2.658 1.497,4.481 0.026,1.916 -0.448,3.475 -1.421,4.675 -0.974,1.211 -2.231,1.827 -3.773,1.848 l -0.039,-2.906 c 0.792,-0.011 1.47,-0.358 2.033,-1.043 0.564,-0.674 0.839,-1.522 0.826,-2.543 -0.014,-1.052 -0.255,-1.871 -0.721,-2.459 -0.466,-0.587 -1.069,-0.876 -1.809,-0.866 -0.697,0.009 -1.22,0.292 -1.566,0.849 -0.347,0.557 -0.672,1.556 -0.976,2.998 -0.303,1.452 -0.673,2.629 -1.109,3.53 -0.436,0.902 -0.968,1.571 -1.598,2.007 -0.619,0.445 -1.382,0.674 -2.288,0.687 -1.51,0.02 -2.732,-0.568 -3.665,-1.764 -0.922,-1.196 -1.396,-2.757 -1.422,-4.684 -0.018,-1.354 0.205,-2.555 0.67,-3.603 0.466,-1.048 1.121,-1.875 1.967,-2.48 0.857,-0.595 1.785,-0.899 2.785,-0.913 l 0.039,2.891 c -0.968,0.065 -1.734,0.461 -2.297,1.187 -0.552,0.737 -0.821,1.699 -0.805,2.886 0.015,1.094 0.245,1.966 0.692,2.616 0.456,0.661 1.055,0.986 1.794,0.976 z m 0.222,16.498 c 0.781,-0.01 1.381,-0.315 1.8,-0.914 0.43,-0.59 0.791,-1.621 1.084,-3.093 0.293,-1.463 0.652,-2.629 1.078,-3.5 0.426,-0.86 0.938,-1.502 1.536,-1.927 0.599,-0.414 1.315,-0.627 2.148,-0.638 1.386,-0.019 2.565,0.549 3.539,1.703 0.974,1.164 1.473,2.657 1.498,4.48 0.026,1.917 -0.448,3.475 -1.422,4.676 -0.973,1.211 -2.231,1.827 -3.772,1.847 l -0.039,-2.906 c 0.791,-0.01 1.469,-0.358 2.033,-1.043 0.564,-0.674 0.839,-1.521 0.825,-2.542 -0.014,-1.052 -0.254,-1.872 -0.72,-2.459 -0.467,-0.588 -1.07,-0.877 -1.809,-0.867 -0.698,0.01 -1.22,0.293 -1.567,0.849 -0.347,0.557 -0.672,1.556 -0.975,2.998 -0.304,1.452 -0.673,2.629 -1.109,3.531 -0.436,0.902 -0.969,1.57 -1.599,2.006 -0.619,0.446 -1.381,0.675 -2.287,0.687 -1.511,0.02 -2.732,-0.567 -3.665,-1.763 -0.922,-1.196 -1.397,-2.758 -1.422,-4.685 -0.019,-1.354 0.205,-2.555 0.67,-3.603 0.465,-1.048 1.121,-1.875 1.967,-2.48 0.857,-0.595 1.785,-0.899 2.785,-0.912 l 0.039,2.89 c -0.968,0.065 -1.734,0.461 -2.297,1.187 -0.553,0.737 -0.821,1.699 -0.805,2.886 0.014,1.094 0.245,1.966 0.691,2.616 0.457,0.661 1.055,0.986 1.795,0.976 z m -4.148,25.09 c 0.331,-0.172 0.923,-0.315 1.775,-0.431 -1.413,-1.324 -2.133,-2.919 -2.158,-4.783 -0.022,-1.667 0.428,-3.043 1.351,-4.128 0.934,-1.075 2.124,-1.623 3.572,-1.642 1.76,-0.024 3.134,0.624 4.12,1.945 0.998,1.33 1.512,3.209 1.545,5.636 l 0.038,2.812 1.328,-0.018 c 1.01,-0.013 1.808,-0.326 2.394,-0.938 0.596,-0.613 0.886,-1.507 0.87,-2.684 -0.014,-1.031 -0.286,-1.892 -0.816,-2.583 -0.53,-0.691 -1.165,-1.032 -1.905,-1.022 l -0.039,-2.906 c 0.844,-0.011 1.66,0.275 2.45,0.858 0.799,0.594 1.435,1.398 1.907,2.412 0.472,1.025 0.717,2.152 0.733,3.381 0.026,1.948 -0.443,3.481 -1.407,4.598 -0.954,1.117 -2.285,1.708 -3.992,1.772 l -7.781,0.105 c -1.552,0.021 -2.783,0.235 -3.695,0.643 l -0.25,0.004 z m 2.138,-4.826 c 0.012,0.906 0.258,1.762 0.738,2.568 0.48,0.806 1.097,1.386 1.852,1.741 l 3.468,-0.047 -0.03,-2.265 c -0.048,-3.541 -1.108,-5.298 -3.181,-5.27 -0.906,0.012 -1.61,0.323 -2.112,0.934 -0.503,0.611 -0.747,1.391 -0.735,2.339 z m 8.765,17.321 6.222,3.667 0.045,3.374 -8.433,-5.418 -8.47,5.817 -0.044,-3.343 6.275,-3.991 -6.38,-3.821 -0.045,-3.359 8.622,5.588 8.285,-5.643 0.045,3.343 z m -10.554,13.487 -0.039,-2.891 16.905,-0.227 0.038,2.891 z m 21.346,-3.412 c 0.469,-0.007 0.867,0.129 1.193,0.406 0.327,0.287 0.494,0.712 0.502,1.274 0.008,0.563 -0.148,0.992 -0.467,1.288 -0.319,0.296 -0.713,0.447 -1.182,0.453 -0.468,0.007 -0.861,-0.134 -1.177,-0.421 -0.317,-0.288 -0.479,-0.713 -0.486,-1.275 -0.008,-0.563 0.143,-0.992 0.451,-1.288 0.309,-0.285 0.698,-0.431 1.166,-0.437 z m -16.668,17.835 c 0.781,-0.011 1.381,-0.316 1.8,-0.915 0.43,-0.59 0.791,-1.621 1.084,-3.093 0.293,-1.463 0.652,-2.629 1.078,-3.499 0.426,-0.86 0.938,-1.503 1.537,-1.928 0.599,-0.414 1.315,-0.627 2.148,-0.638 1.385,-0.018 2.565,0.549 3.539,1.703 0.974,1.164 1.473,2.657 1.497,4.48 0.026,1.917 -0.448,3.475 -1.421,4.676 -0.974,1.211 -2.231,1.827 -3.773,1.848 l -0.039,-2.906 c 0.792,-0.011 1.47,-0.359 2.033,-1.043 0.564,-0.675 0.839,-1.522 0.826,-2.543 -0.014,-1.052 -0.255,-1.872 -0.721,-2.459 -0.466,-0.588 -1.069,-0.877 -1.809,-0.867 -0.697,0.01 -1.22,0.293 -1.566,0.85 -0.347,0.556 -0.672,1.556 -0.976,2.997 -0.303,1.452 -0.673,2.629 -1.109,3.531 -0.436,0.902 -0.968,1.571 -1.598,2.006 -0.619,0.446 -1.382,0.675 -2.288,0.687 -1.51,0.02 -2.732,-0.567 -3.665,-1.763 -0.922,-1.196 -1.396,-2.758 -1.422,-4.685 -0.018,-1.354 0.205,-2.555 0.67,-3.603 0.466,-1.048 1.121,-1.874 1.967,-2.48 0.857,-0.594 1.785,-0.899 2.785,-0.912 l 0.039,2.89 c -0.968,0.065 -1.734,0.461 -2.297,1.187 -0.552,0.737 -0.821,1.699 -0.805,2.887 0.015,1.093 0.245,1.965 0.692,2.616 0.456,0.66 1.055,0.985 1.794,0.976 z"
     id="path20"
     inkscape:connector-curvature="0"
     style="fill:#000000" />
  <path
     d="m 3.422,268.094 0.078,1.875 c 1.24,-1.459 2.912,-2.188 5.016,-2.188 2.365,0 3.974,0.907 4.828,2.719 0.563,-0.812 1.292,-1.469 2.188,-1.969 0.906,-0.5 1.974,-0.75 3.203,-0.75 3.708,0 5.593,1.964 5.656,5.891 V 285 H 21.5 v -11.156 c 0,-1.209 -0.276,-2.11 -0.828,-2.703 -0.552,-0.605 -1.479,-0.907 -2.781,-0.907 -1.073,0 -1.964,0.323 -2.672,0.969 -0.708,0.636 -1.12,1.495 -1.234,2.578 V 285 h -2.907 v -11.078 c 0,-2.458 -1.203,-3.688 -3.609,-3.688 -1.896,0 -3.193,0.808 -3.891,2.422 V 285 H 0.688 V 268.094 Z M 39.204,285 c -0.167,-0.333 -0.303,-0.927 -0.407,-1.781 -1.343,1.396 -2.948,2.093 -4.812,2.093 -1.667,0 -3.037,-0.468 -4.11,-1.406 -1.062,-0.948 -1.593,-2.146 -1.593,-3.594 0,-1.76 0.666,-3.124 2,-4.093 1.343,-0.979 3.229,-1.469 5.656,-1.469 h 2.812 v -1.328 c 0,-1.011 -0.302,-1.813 -0.906,-2.406 -0.604,-0.605 -1.495,-0.907 -2.672,-0.907 -1.031,0 -1.896,0.261 -2.594,0.782 -0.697,0.52 -1.046,1.151 -1.046,1.89 h -2.907 c 0,-0.843 0.297,-1.656 0.891,-2.437 0.604,-0.792 1.417,-1.417 2.438,-1.875 1.031,-0.459 2.161,-0.688 3.39,-0.688 1.948,0 3.474,0.49 4.578,1.469 1.104,0.969 1.677,2.307 1.719,4.016 v 7.781 c 0,1.552 0.198,2.786 0.594,3.703 V 285 Z m -4.797,-2.203 c 0.906,0 1.765,-0.235 2.578,-0.703 0.812,-0.469 1.401,-1.078 1.765,-1.828 v -3.469 h -2.265 c -3.542,0 -5.313,1.036 -5.313,3.109 0,0.906 0.302,1.615 0.906,2.125 0.605,0.511 1.381,0.766 2.329,0.766 z M 49.313,285 h -2.891 v -16.906 h 2.891 z m -3.125,-21.391 c 0,-0.468 0.14,-0.864 0.422,-1.187 0.291,-0.323 0.718,-0.484 1.281,-0.484 0.563,0 0.99,0.161 1.281,0.484 0.292,0.323 0.438,0.719 0.438,1.187 0,0.469 -0.146,0.86 -0.438,1.172 -0.291,0.313 -0.718,0.469 -1.281,0.469 -0.563,0 -0.99,-0.156 -1.281,-0.469 -0.282,-0.312 -0.422,-0.703 -0.422,-1.172 z m 10.5,4.485 0.094,2.125 c 1.291,-1.625 2.979,-2.438 5.062,-2.438 3.573,0 5.375,2.016 5.406,6.047 V 285 h -2.89 v -11.188 c -0.011,-1.218 -0.292,-2.119 -0.844,-2.703 -0.542,-0.583 -1.391,-0.875 -2.547,-0.875 -0.937,0 -1.76,0.25 -2.469,0.75 -0.708,0.5 -1.26,1.157 -1.656,1.969 V 285 h -2.89 v -16.906 z m -46.141,50.422 c 0,-0.782 -0.297,-1.386 -0.89,-1.813 -0.584,-0.437 -1.61,-0.812 -3.079,-1.125 -1.458,-0.312 -2.619,-0.687 -3.484,-1.125 -0.854,-0.437 -1.489,-0.958 -1.906,-1.562 -0.406,-0.605 -0.61,-1.323 -0.61,-2.157 0,-1.385 0.584,-2.557 1.75,-3.515 1.178,-0.959 2.678,-1.438 4.5,-1.438 1.917,0 3.469,0.495 4.657,1.485 1.198,0.989 1.797,2.255 1.797,3.796 h -2.907 c 0,-0.791 -0.338,-1.473 -1.015,-2.046 -0.667,-0.573 -1.511,-0.86 -2.532,-0.86 -1.052,0 -1.874,0.229 -2.468,0.688 -0.594,0.458 -0.891,1.057 -0.891,1.797 0,0.698 0.276,1.224 0.828,1.578 0.552,0.354 1.547,0.692 2.985,1.015 1.448,0.323 2.619,0.709 3.515,1.157 0.896,0.448 1.558,0.989 1.985,1.625 0.437,0.625 0.656,1.39 0.656,2.296 0,1.511 -0.604,2.724 -1.813,3.641 -1.208,0.906 -2.776,1.359 -4.703,1.359 -1.354,0 -2.552,-0.239 -3.594,-0.718 -1.041,-0.479 -1.859,-1.146 -2.453,-2 C 0.292,319.729 0,318.797 0,317.797 h 2.891 c 0.052,0.969 0.437,1.739 1.156,2.312 0.729,0.563 1.688,0.844 2.875,0.844 1.094,0 1.969,-0.219 2.625,-0.656 0.667,-0.448 1,-1.042 1,-1.781 z M 21.125,302 v 4.094 h 3.157 v 2.234 h -3.157 v 10.484 c 0,0.678 0.141,1.188 0.422,1.532 0.281,0.333 0.761,0.5 1.438,0.5 0.333,0 0.791,-0.063 1.375,-0.188 V 323 c -0.761,0.208 -1.5,0.312 -2.219,0.312 -1.292,0 -2.266,-0.39 -2.922,-1.171 -0.656,-0.782 -0.984,-1.891 -0.984,-3.329 v -10.484 h -3.078 v -2.234 h 3.078 V 302 Z m 16.985,21 c -0.167,-0.333 -0.302,-0.927 -0.406,-1.781 -1.344,1.396 -2.948,2.093 -4.813,2.093 -1.667,0 -3.036,-0.468 -4.109,-1.406 -1.063,-0.948 -1.594,-2.146 -1.594,-3.594 0,-1.76 0.667,-3.124 2,-4.093 1.344,-0.979 3.229,-1.469 5.656,-1.469 h 2.813 v -1.328 c 0,-1.011 -0.302,-1.813 -0.907,-2.406 -0.604,-0.605 -1.494,-0.907 -2.672,-0.907 -1.031,0 -1.895,0.261 -2.593,0.782 -0.698,0.52 -1.047,1.151 -1.047,1.89 h -2.906 c 0,-0.843 0.296,-1.656 0.89,-2.437 0.604,-0.792 1.417,-1.417 2.438,-1.875 1.031,-0.459 2.161,-0.688 3.39,-0.688 1.948,0 3.474,0.49 4.578,1.469 1.105,0.969 1.678,2.307 1.719,4.016 v 7.781 c 0,1.552 0.198,2.786 0.594,3.703 V 323 Z m -4.797,-2.203 c 0.906,0 1.765,-0.235 2.578,-0.703 0.813,-0.469 1.401,-1.078 1.766,-1.828 v -3.469 h -2.266 c -3.542,0 -5.313,1.036 -5.313,3.109 0,0.906 0.303,1.615 0.907,2.125 0.604,0.511 1.38,0.766 2.328,0.766 z M 53.25,308.688 c -0.437,-0.073 -0.911,-0.11 -1.422,-0.11 -1.895,0 -3.182,0.807 -3.859,2.422 v 12 h -2.891 v -16.906 h 2.813 l 0.047,1.953 c 0.948,-1.511 2.292,-2.266 4.031,-2.266 0.563,0 0.99,0.073 1.281,0.219 z M 60.625,302 v 4.094 h 3.157 v 2.234 h -3.157 v 10.484 c 0,0.678 0.141,1.188 0.422,1.532 0.281,0.333 0.761,0.5 1.438,0.5 0.333,0 0.791,-0.063 1.375,-0.188 V 323 c -0.761,0.208 -1.5,0.312 -2.219,0.312 -1.292,0 -2.266,-0.39 -2.922,-1.171 -0.656,-0.782 -0.984,-1.891 -0.984,-3.329 v -10.484 h -3.078 v -2.234 h 3.078 V 302 Z"
     id="path22"
     inkscape:connector-curvature="0"
     style="fill:#000000" />
  <path
     d="m 610.426,268.094 0.07,1.875 c 1.24,-1.459 2.92,-2.188 5.02,-2.188 2.36,0 3.97,0.907 4.83,2.719 0.56,-0.812 1.29,-1.469 2.19,-1.969 0.9,-0.5 1.97,-0.75 3.2,-0.75 3.71,0 5.59,1.964 5.66,5.891 V 285 h -2.9 v -11.156 c 0,-1.209 -0.27,-2.11 -0.82,-2.703 -0.56,-0.605 -1.48,-0.907 -2.78,-0.907 -1.08,0 -1.97,0.323 -2.68,0.969 -0.71,0.636 -1.12,1.495 -1.23,2.578 V 285 h -2.91 v -11.078 c 0,-2.458 -1.2,-3.688 -3.61,-3.688 -1.89,0 -3.19,0.808 -3.89,2.422 V 285 h -2.89 V 268.094 Z M 646.206,285 c -0.17,-0.333 -0.3,-0.927 -0.41,-1.781 -1.34,1.396 -2.95,2.093 -4.81,2.093 -1.67,0 -3.04,-0.468 -4.11,-1.406 -1.06,-0.948 -1.59,-2.146 -1.59,-3.594 0,-1.76 0.66,-3.124 2,-4.093 1.34,-0.979 3.22,-1.469 5.65,-1.469 h 2.81 v -1.328 c 0,-1.011 -0.3,-1.813 -0.9,-2.406 -0.61,-0.605 -1.5,-0.907 -2.67,-0.907 -1.04,0 -1.9,0.261 -2.6,0.782 -0.7,0.52 -1.04,1.151 -1.04,1.89 h -2.91 c 0,-0.843 0.3,-1.656 0.89,-2.437 0.6,-0.792 1.42,-1.417 2.44,-1.875 1.03,-0.459 2.16,-0.688 3.39,-0.688 1.95,0 3.47,0.49 4.58,1.469 1.1,0.969 1.67,2.307 1.71,4.016 v 7.781 c 0,1.552 0.2,2.786 0.6,3.703 V 285 Z m -4.8,-2.203 c 0.91,0 1.77,-0.235 2.58,-0.703 0.81,-0.469 1.4,-1.078 1.76,-1.828 v -3.469 h -2.26 c -3.54,0 -5.31,1.036 -5.31,3.109 0,0.906 0.3,1.615 0.9,2.125 0.61,0.511 1.38,0.766 2.33,0.766 z m 14.91,2.203 h -2.89 v -16.906 h 2.89 z m -3.13,-21.391 c 0,-0.468 0.14,-0.864 0.42,-1.187 0.3,-0.323 0.72,-0.484 1.29,-0.484 0.56,0 0.98,0.161 1.28,0.484 0.29,0.323 0.43,0.719 0.43,1.187 0,0.469 -0.14,0.86 -0.43,1.172 -0.3,0.313 -0.72,0.469 -1.28,0.469 -0.57,0 -0.99,-0.156 -1.29,-0.469 -0.28,-0.312 -0.42,-0.703 -0.42,-1.172 z m 10.5,4.485 0.1,2.125 c 1.29,-1.625 2.97,-2.438 5.06,-2.438 3.57,0 5.37,2.016 5.4,6.047 V 285 h -2.89 v -11.188 c -0.01,-1.218 -0.29,-2.119 -0.84,-2.703 -0.54,-0.583 -1.39,-0.875 -2.55,-0.875 -0.93,0 -1.76,0.25 -2.47,0.75 -0.7,0.5 -1.26,1.157 -1.65,1.969 V 285 h -2.89 v -16.906 z m -48.97,55.218 c -2.29,0 -4.15,-0.75 -5.59,-2.25 -1.44,-1.51 -2.16,-3.526 -2.16,-6.046 v -0.532 c 0,-1.677 0.32,-3.172 0.96,-4.484 0.64,-1.323 1.54,-2.354 2.68,-3.094 1.16,-0.75 2.41,-1.125 3.75,-1.125 2.2,0 3.91,0.724 5.13,2.172 1.22,1.448 1.83,3.521 1.83,6.219 v 1.203 h -11.46 c 0.05,1.667 0.53,3.016 1.46,4.047 0.93,1.021 2.12,1.531 3.56,1.531 1.02,0 1.88,-0.208 2.59,-0.625 0.71,-0.417 1.33,-0.969 1.86,-1.656 l 1.77,1.375 c -1.42,2.177 -3.54,3.265 -6.38,3.265 z m -0.36,-15.156 c -1.16,0 -2.14,0.427 -2.93,1.282 -0.8,0.843 -1.29,2.031 -1.47,3.562 h 8.47 v -0.219 c -0.09,-1.469 -0.48,-2.604 -1.19,-3.406 -0.71,-0.813 -1.67,-1.219 -2.88,-1.219 z m 13.05,-2.062 0.09,2.125 c 1.3,-1.625 2.98,-2.438 5.07,-2.438 3.57,0 5.37,2.016 5.4,6.047 V 323 h -2.89 v -11.188 c -0.01,-1.218 -0.29,-2.119 -0.84,-2.703 -0.54,-0.583 -1.39,-0.875 -2.55,-0.875 -0.94,0 -1.76,0.25 -2.47,0.75 -0.71,0.5 -1.26,1.157 -1.65,1.969 V 323 h -2.89 v -16.906 z m 14.22,8.312 c 0,-2.594 0.61,-4.677 1.84,-6.25 1.23,-1.583 2.84,-2.375 4.83,-2.375 1.98,0 3.55,0.677 4.7,2.031 V 299 h 2.9 v 24 h -2.66 l -0.14,-1.812 c -1.16,1.416 -2.77,2.124 -4.83,2.124 -1.96,0 -3.56,-0.802 -4.8,-2.406 -1.23,-1.604 -1.84,-3.698 -1.84,-6.281 z m 2.89,0.328 c 0,1.917 0.4,3.417 1.19,4.5 0.79,1.084 1.88,1.625 3.28,1.625 1.83,0 3.17,-0.823 4.01,-2.468 v -7.766 c -0.86,-1.594 -2.19,-2.391 -3.98,-2.391 -1.42,0 -2.52,0.547 -3.31,1.641 -0.79,1.094 -1.19,2.714 -1.19,4.859 z"
     id="path24"
     inkscape:connector-curvature="0"
     style="fill:#000000" />
  <line
     x1="34.015999"
     y1="198"
     x2="34.015999"
     y2="255"
     id="line26"
     style="stroke:#000000" />
  <line
     x1="640.01599"
     y1="198"
     x2="640.01599"
     y2="255"
     id="line28"
     style="stroke:#000000" />
</svg>
