<?xml version="1.0"?><svg fill="#000000" xmlns="http://www.w3.org/2000/svg"  viewBox="0 0 24 24" width="96px" height="96px">    <path d="M 12 2 C 8.4715143 2 6.0901733 4.3089433 5.2949219 7.0039062 C 5.1116746 7.0093228 4.9431329 7.1108073 4.8613281 7.2753906 L 3.9609375 9.0761719 C 2.7594148 10.090883 2 11.531446 2 13 C 2 16.014 4.5415625 18.036234 7.3515625 18.740234 C 7.4655625 18.769234 7.5609531 18.837547 7.6269531 18.935547 C 8.4679531 20.171547 10.084 21 12 21 C 13.916 21 15.531094 20.171547 16.371094 18.935547 C 16.437094 18.837547 16.534437 18.769234 16.648438 18.740234 C 19.459437 18.036234 22 16.014 22 13 C 22 11.531446 21.240585 10.090883 20.039062 9.0761719 L 19.960938 8.921875 L 20.5 8.5917969 C 21.692 7.8227969 22.219016 6.3414688 21.916016 4.9804688 C 21.811016 4.5094687 21.459109 4.1511094 21.037109 4.0371094 C 20.661109 3.9361094 20.256703 4.0342187 19.970703 4.3242188 C 19.24103 5.0611813 18.908671 6.125291 19.033203 7.1601562 C 18.94421 7.070693 18.834624 7.0077355 18.705078 7.0039062 C 17.909827 4.3089433 15.528486 2 12 2 z M 12 4 C 14.409792 4 15.873781 5.4317334 16.548828 7 L 7.4511719 7 C 8.1262192 5.4317334 9.5902083 4 12 4 z M 9 8 C 10.1 8 11 8.4 11 9 C 11 9.0279762 10.988217 9.0529918 10.984375 9.0800781 C 10.080241 9.2082538 9.2473911 9.5041985 8.5605469 9.9589844 C 7.676568 9.8653265 7 9.5151981 7 9 C 7 8.4 7.9 8 9 8 z M 15 8 C 16.1 8 17 8.4 17 9 C 17 9.5151981 16.323432 9.8653265 15.439453 9.9589844 C 14.752156 9.5041882 13.920199 9.2080715 13.015625 9.0800781 C 13.011783 9.0529918 13 9.0279762 13 9 C 13 8.4 13.9 8 15 8 z M 4.84375 11 L 7.4511719 11 C 7.3258185 11.171185 7.211697 11.349739 7.1152344 11.541016 A 1.0001 1.0001 0 1 0 8.9003906 12.441406 C 9.2487639 11.750615 10.459923 11 12 11 C 13.546855 11 14.759668 11.756945 15.103516 12.451172 A 1.0005589 1.0005589 0 0 0 16.896484 11.5625 C 16.798114 11.36389 16.682137 11.177098 16.552734 11 L 19.15625 11 C 19.677021 11.586829 20 12.298236 20 13 C 20 15.392 17.373687 16.719703 15.304688 16.970703 C 15.130688 16.991703 14.979156 17.092906 14.910156 17.253906 C 14.683156 17.791906 13.956 19 12 19 C 10.054 19 9.3198438 17.788953 9.0898438 17.251953 C 9.0208437 17.090953 8.8712656 16.991703 8.6972656 16.970703 C 6.6282656 16.720703 4 15.392 4 13 C 4 12.298236 4.3229787 11.586829 4.84375 11 z M 14.978516 13.992188 A 1.0001 1.0001 0 0 0 14.443359 14.167969 C 13.986567 14.473301 12.61834 14.892882 10.953125 15.001953 A 1.0001894 1.0001894 0 0 0 11.083984 16.998047 C 12.96077 16.875118 14.499433 16.538699 15.556641 15.832031 A 1.0001 1.0001 0 0 0 14.978516 13.992188 z"/></svg>